# Blender v3.0.0 OBJ File: 'item.blend'
# www.blender.org
mtllib item.mtl
o 立方体
v 0.000000 -1.000000 -1.094507
v -0.018838 -1.000000 1.045705
v -0.018838 0.000000 1.045705
v 0.000000 0.000000 -1.094507
v -1.085056 -1.000000 0.000000
v 1.101104 -1.000000 0.000000
v 1.101104 0.000000 0.000000
v -1.085056 0.000000 0.000000
v 0.000000 -2.151253 0.000000
v 1.000000 -1.000000 0.366783
v 0.366783 -1.000000 1.000000
v 0.366783 0.000000 1.000000
v 1.000000 0.000000 0.366783
v 0.328247 -1.000000 -1.000000
v 1.000000 -1.000000 -0.328247
v 1.000000 0.000000 -0.328247
v 0.328247 0.000000 -1.000000
v -0.328820 -1.000000 1.000000
v -1.000000 -1.000000 0.328820
v -1.000000 0.000000 0.328820
v -0.328820 0.000000 1.000000
v -1.000000 -1.000000 -0.297805
v -0.297805 -1.000000 -1.000000
v -0.297805 0.000000 -1.000000
v -1.000000 0.000000 -0.297805
v -0.738784 -1.047591 -0.728703
v -0.738784 0.000000 -0.728703
v 0.788495 -1.004607 -0.745661
v 0.788495 0.000000 -0.745661
v -0.712022 -1.018011 0.734193
v -0.712022 0.000000 0.734193
v 0.778972 -1.000000 0.750814
v 0.778972 0.000000 0.750814
v 0.000000 1.000000 -1.094507
v -0.018838 1.000000 1.045705
v -1.085056 1.000000 0.000000
v 1.101104 1.000000 0.000000
v 0.000000 2.151253 0.000000
v 1.000000 1.000000 0.366783
v 0.366783 1.000000 1.000000
v 0.328247 1.000000 -1.000000
v 1.000000 1.000000 -0.328247
v -0.328820 1.000000 1.000000
v -1.000000 1.000000 0.328820
v -1.000000 1.000000 -0.297805
v -0.297805 1.000000 -1.000000
v -0.738784 1.047591 -0.728703
v 0.788495 1.004607 -0.745661
v -0.712022 1.018011 0.734193
v 0.778972 1.000000 0.750814
vt 0.000000 0.000000
vt 0.000000 0.000000
vt 0.375000 0.587283
vt 0.000000 0.000000
vt 0.375000 0.416031
vt 0.000000 0.000000
vt 0.375000 0.162226
vt 0.375000 0.337774
vt 0.375000 0.375000
vt 0.375000 0.829152
vt 0.375000 0.875000
vt 0.500000 0.875000
vt 0.500000 0.916103
vt 0.375000 0.916103
vt 0.375000 0.583969
vt 0.375000 0.625000
vt 0.375000 0.125000
vt 0.500000 0.125000
vt 0.500000 0.162226
vt 0.375000 0.083898
vt 0.500000 0.083898
vt 0.500000 0.625000
vt 0.500000 0.670848
vt 0.375000 0.670848
vt 0.500000 0.375000
vt 0.500000 0.416031
vt 0.500000 0.829152
vt 0.500000 0.583969
vt 0.500000 0.337774
vt 0.000000 0.000000
vt 0.000000 0.000000
vt 0.000000 0.000000
vt 0.000000 0.000000
vt 0.000000 0.000000
vt 0.000000 0.000000
vt 0.375000 0.587283
vt 0.000000 0.000000
vt 0.000000 0.000000
vt 0.375000 0.416031
vt 0.000000 0.000000
vt 0.375000 0.162226
vt 0.375000 0.375000
vt 0.375000 0.337774
vt 0.375000 0.875000
vt 0.375000 0.829152
vt 0.375000 0.916103
vt 0.375000 0.625000
vt 0.375000 0.583969
vt 0.375000 0.125000
vt 0.375000 0.083898
vt 0.375000 0.670848
vt 0.000000 0.000000
vn -0.4056 -0.6627 0.6296
vn 0.3545 -0.6688 -0.6535
vn -0.6681 -0.6661 -0.3315
vn -0.2241 -0.6715 -0.7063
vn 0.0875 -0.6690 0.7381
vn -0.1459 0.0000 0.9893
vn 0.7054 -0.6747 -0.2173
vn -0.9616 0.0000 -0.2746
vn -0.9681 0.0000 0.2504
vn 0.9640 0.0000 0.2657
vn 0.2767 0.0000 -0.9610
vn 0.1177 0.0000 0.9930
vn 0.9557 0.0000 -0.2944
vn -0.7152 -0.6740 0.1850
vn -0.3025 0.0000 -0.9532
vn -0.5240 0.0000 -0.8517
vn -0.8551 0.0000 -0.5184
vn 0.8920 0.0000 -0.4520
vn 0.4837 0.0000 -0.8752
vn -0.8152 0.0000 0.5791
vn -0.5700 0.0000 0.8217
vn 0.5174 0.0000 0.8558
vn 0.8667 0.0000 0.4988
vn 0.6405 -0.6738 0.3686
vn 0.7087 -0.6779 0.1954
vn 0.6644 -0.6710 -0.3292
vn 0.2043 -0.6745 -0.7095
vn -0.3377 -0.6655 -0.6656
vn -0.7125 -0.6715 -0.2035
vn -0.6250 -0.6614 0.4146
vn -0.1084 -0.6694 0.7350
vn 0.3830 -0.6723 0.6335
vn -0.4056 0.6627 0.6296
vn 0.3545 0.6688 -0.6535
vn -0.6681 0.6661 -0.3315
vn -0.2241 0.6715 -0.7063
vn 0.0875 0.6690 0.7381
vn 0.7054 0.6747 -0.2173
vn -0.7152 0.6740 0.1850
vn 0.6405 0.6738 0.3686
vn 0.7087 0.6779 0.1954
vn 0.6644 0.6710 -0.3292
vn 0.2043 0.6745 -0.7095
vn -0.3377 0.6655 -0.6656
vn -0.7125 0.6715 -0.2035
vn -0.6250 0.6614 0.4146
vn -0.1084 0.6694 0.7350
vn 0.3830 0.6723 0.6335
usemtl マテリアル
s off
f 30/1/1 9/2/1 18/3/1
f 28/4/2 9/2/2 14/5/2
f 26/6/3 9/2/3 22/7/3
f 9/2/4 23/8/4 1/9/4
f 9/2/5 11/10/5 2/11/5
f 2/11/6 3/12/6 21/13/6 18/14/6
f 9/2/7 15/15/7 6/16/7
f 5/17/8 8/18/8 25/19/8 22/7/8
f 19/20/9 20/21/9 8/18/9 5/17/9
f 6/16/10 7/22/10 13/23/10 10/24/10
f 1/9/11 4/25/11 17/26/11 14/5/11
f 11/10/12 12/27/12 3/12/12 2/11/12
f 15/15/13 16/28/13 7/22/13 6/16/13
f 5/17/14 9/2/14 19/20/14
f 23/8/15 24/29/15 4/25/15 1/9/15
f 24/29/16 23/8/16 26/6/16 27/30/16
f 25/19/17 27/30/17 26/6/17 22/7/17
f 16/28/18 15/15/18 28/4/18 29/31/18
f 17/26/19 29/31/19 28/4/19 14/5/19
f 20/21/20 19/20/20 30/1/20 31/32/20
f 21/13/21 31/32/21 30/1/21 18/3/21
f 12/27/22 11/10/22 32/33/22 33/34/22
f 13/23/23 33/34/23 32/33/23 10/24/23
f 32/33/24 9/2/24 10/24/24
f 6/16/25 10/24/25 9/2/25
f 28/4/26 15/15/26 9/2/26
f 1/9/27 14/5/27 9/2/27
f 23/8/28 9/2/28 26/6/28
f 5/17/29 22/7/29 9/2/29
f 30/1/30 19/20/30 9/2/30
f 2/11/31 18/14/31 9/2/31
f 32/33/32 11/10/32 9/2/32
f 49/35/33 43/36/33 38/37/33
f 48/38/34 41/39/34 38/37/34
f 47/40/35 45/41/35 38/37/35
f 38/37/36 34/42/36 46/43/36
f 38/37/37 35/44/37 40/45/37
f 35/44/6 43/46/6 21/13/6 3/12/6
f 38/37/38 37/47/38 42/48/38
f 36/49/8 45/41/8 25/19/8 8/18/8
f 44/50/9 36/49/9 8/18/9 20/21/9
f 37/47/10 39/51/10 13/23/10 7/22/10
f 34/42/11 41/39/11 17/26/11 4/25/11
f 40/45/12 35/44/12 3/12/12 12/27/12
f 42/48/13 37/47/13 7/22/13 16/28/13
f 36/49/39 44/50/39 38/37/39
f 46/43/15 34/42/15 4/25/15 24/29/15
f 24/29/16 27/30/16 47/40/16 46/43/16
f 25/19/17 45/41/17 47/40/17 27/30/17
f 16/28/18 29/31/18 48/38/18 42/48/18
f 17/26/19 41/39/19 48/38/19 29/31/19
f 20/21/20 31/32/20 49/35/20 44/50/20
f 21/13/21 43/36/21 49/35/21 31/32/21
f 12/27/22 33/34/22 50/52/22 40/45/22
f 13/23/23 39/51/23 50/52/23 33/34/23
f 50/52/40 39/51/40 38/37/40
f 37/47/41 38/37/41 39/51/41
f 48/38/42 38/37/42 42/48/42
f 34/42/43 38/37/43 41/39/43
f 46/43/44 47/40/44 38/37/44
f 36/49/45 38/37/45 45/41/45
f 49/35/46 38/37/46 44/50/46
f 35/44/47 38/37/47 43/46/47
f 50/52/48 38/37/48 40/45/48
